<?xml version="1.0" encoding="utf-8"?>
<!-- Generator: Adobe Illustrator 19.2.1, SVG Export Plug-In . SVG Version: 6.00 Build 0)  -->
<svg version="1.1" id="Layer_1" xmlns="http://www.w3.org/2000/svg" xmlns:xlink="http://www.w3.org/1999/xlink" x="0px" y="0px"
	 viewBox="0 0 200 100" style="enable-background:new 0 0 200 100;" xml:space="preserve">
<style type="text/css">
	.st0{fill:#FFFFFF;stroke:#000000;stroke-miterlimit:10;}
</style>
<g>
	<g id="P_3_">
		<path d="M64.1,15.5c-0.4-0.4-0.1-1.1,0.4-1.4c0.5-0.3,1.1-0.3,1.6-0.6s0.9-0.9,0.6-1.4c0.6-0.1,1.2,0.4,1.2,1
			c6.2-1,12.5-1.4,18.6-0.2s12,4.4,15.6,9.4c0.9,1.3,1.7,2.7,1.9,4.3c0.2,2.2-0.9,4.3-2.4,5.8c-1.6,1.5-3.5,2.5-5.6,3.3
			c-8.4,3.3-17.7,3.8-26.7,2.8c-0.8-0.1-1.8,0.1-1.8,0.9c0.1,6.9-0.8,24.4-1.3,31.3c-0.1,0.7-0.1,1.4-0.9,1.7c-1,0-1.1-5.6-1-6.2
			c0.9-7.1,1.7-20,1.8-27.1c0-0.2-0.1-0.5-0.3-0.6C65,37.7,64,37.9,63,37.7s-2.1-1-1-2.5c0,0,0,0,0.1,0c1,0.8,2.2,1.3,3.5,1.5
			c0.2,0,0.3,0,0.5-0.1c0.1-0.1,0.2-0.3,0.2-0.5c0.4-7,0.6-13.9,0.5-20.9C65.8,15,64.7,16.2,64.1,15.5 M102,29
			c0.9-2.2-0.2-4.8-1.7-6.7c-3.5-4.4-9-7-14.6-8s-11.3-0.5-16.9,0.2c-0.2,0-0.4,0.1-0.5,0.2c-0.1,0.1-0.1,0.3-0.1,0.5
			c-0.1,7.1-0.2,14.1-0.3,21.2c0,0.2,0,0.3,0.1,0.4c0,0.2,0.3,0.2,0.5,0.2c8.2,0.8,16.7,0.6,24.6-2c2.6-0.8,5.2-2,7.3-3.8
			C101,30.6,101.6,29.9,102,29z"/>
	</g>
	<g id="Pushing_People_3_">
		<path class="st0" d="M55.4,47.4c-0.8,0.3-1.4,0.8-2.1,1.2c-1.3,0.7-2.9,0.8-4.2,0.1C47.8,47.9,47,46.5,47,45s1-2.9,2.4-3.4
			c0.6-0.2,1.2-0.7,1.8-1c0.8-0.3,1.8-0.1,2.7,0.1c0.8,0.2,1.6,0.5,2.3,0.9s1.3,1.1,1.5,1.9C58.1,45.2,56.9,46.8,55.4,47.4 M51,46.5
			c0.9,0.4,2.1,0.3,2.9-0.3c0.5-0.4,0.8-0.9,0.9-1.6c0.1-0.6-0.2-1.3-0.7-1.6s-1.3-0.3-1.7,0.1c-0.3,0.3-0.6,0.6-0.9,0.9
			c-0.3,0.3-0.7,0.5-1,0.3s-0.2-0.8,0.1-1.1c0.3-0.4,0.6-0.7,1-0.9c-0.4-0.2-0.9,0-1.2,0.4C50.1,43,50,43.5,49.9,44
			c-0.1,0.6,0,1.2,0.3,1.7C50.4,46.1,50.7,46.4,51,46.5 M52.8,47.9c-0.1-0.2-0.4-0.2-0.6-0.1c-1.4,0.2-2.8-0.4-3.9-1.4
			c-0.1,0.2,0,0.4,0.1,0.5C49.6,48.2,51.4,48.6,52.8,47.9 M55.9,43c0.2,0.2,0.3,0.4,0.4,0.7c0.3,0.8-0.2,1.6-0.6,2.2
			c-0.1,0.2-0.2,0.4-0.2,0.5c0.8-0.4,1.3-1.3,1.3-2.2s-0.7-1.8-1.6-2C55.5,42.5,55.7,42.7,55.9,43 M48.7,43.9c0-0.2,0-0.3,0-0.4
			c-0.5,0.4-0.6,1.4-0.1,1.9C48.6,44.8,48.6,44.3,48.7,43.9 M52.3,41.6c0.5,0,1,0.1,1.4,0.1c0.1,0,0.1,0,0.2,0
			c0.1,0,0.1-0.1,0.1-0.1c-0.7-0.2-1.4-0.3-2.2-0.3C51.8,41.5,52.1,41.6,52.3,41.6z"/>
		<path class="st0" d="M54.1,62.2c-0.4-0.2-0.3-0.9,0.1-1c0.4-0.1,0.8,0.1,1.1,0.4c0.3,0.3,0.5,0.6,0.8,0.9c0.6,0.5,1.4,0.5,1.9,1
			c0.5,0.4,0.8,1.1,0.9,1.7c0.1,0.4,0,0.9,0,1.3c-0.3,1.4-1.2,2.6-2.1,3.7c-0.4,0.4-0.7,0.9-1.3,1c0.2,0.3,0.6,0.3,1,0.2
			c0.9-0.2,1.7-0.3,2.6-0.5c0.3-0.1,0.7-0.1,0.9,0.2c0.2,0.4-0.4,0.7-0.8,0.8c-0.9,0.2-1.8,0.3-2.7,0.5c-0.4,0.1-0.7,0.1-1.1,0
			c-0.3-0.1-0.7-0.4-0.6-0.8c-0.4,0.2-1,0.3-1.3-0.1c-0.2-0.3-0.1-0.7,0.1-1c0.5-0.8,1.5-1.4,2-2.3c0.3-0.5,0.3-1.1,0.4-1.6
			c0.1-0.9,0.1-1.9-0.6-2.4C54.6,64,54.9,62.6,54.1,62.2 M56.9,65c0-0.1-0.1-0.2-0.1-0.3c0-0.1-0.1-0.2-0.2-0.1
			c0,0.9,0.1,1.8,0.1,2.7c0.4-0.1,0.6-0.6,0.6-1.1C57.3,65.9,57.1,65.4,56.9,65 M57.3,64.3c0.3,0.5,0.6,0.9,0.8,1.4
			c0.1-0.3,0.1-0.7-0.1-1s-0.4-0.6-0.7-0.8C57.1,63.9,57.2,64.1,57.3,64.3z"/>
		<path class="st0" d="M24.1,48.2c-0.4-0.9-0.3-2,0.2-2.8s1.4-1.4,2.3-1.6c0.9-0.2,1.9,0,2.8,0.2c0.4,0.1,0.8,0.3,1.1,0.6
			C31,45.1,31,46,31,46.7c-0.1,0.8-0.2,1.6-0.6,2.2c-0.4,0.5-1,0.8-1.6,1c-0.9,0.2-1.8,0.3-2.7,0C25.2,49.6,24.5,49,24.1,48.2
			 M28.4,47.1c-0.2,0.2-0.6,0-0.8-0.1c-0.2-0.1-0.4-0.3-0.7-0.4c-0.3-0.2-0.7-0.3-1-0.1s-0.2,0.7,0,1c0.2,0.4,0.6,0.8,1,1.1
			s1,0.6,1.6,0.5c0.3,0,0.5-0.2,0.7-0.3c0.6-0.4,1-1.2,1-1.9s-0.4-1.5-1-1.8c-0.3-0.2-0.6-0.3-1-0.2s-0.8,0.4-1.1,0.2
			C27,45,27,44.9,26.9,44.8c-0.2-0.2-0.5,0-0.7,0.1c-0.9,0.6-1.6,1.7-1.3,2.8c0.2,0.6,0.6,1,1.1,1.4c0.2,0.1,0.5,0.2,0.6,0.1
			c-0.6-0.4-1.2-1-1.3-1.7c-0.2-0.7,0.2-1.6,0.9-1.8c0.4-0.1,0.9,0.1,1.3,0.3c0.2,0.1,0.4,0.2,0.6,0.3s0.4,0.2,0.5,0.3
			S28.6,46.9,28.4,47.1z"/>
		<path class="st0" d="M42.7,66.7c0-0.3,0.4-0.5,0.7-0.4c0.3,0,0.7,0.2,1,0.1c-0.6-0.1-1.1-0.7-1.1-1.3c0-0.3-0.6-0.5-0.6-0.8
			c0-0.3,0.4-0.3,0.7-0.3c0.4,0,0.7,0.1,1,0.3s0.6,0.5,0.6,0.8c0,0.7,0.1,1.4,0.4,2c0.1,0.2-0.3,0.4-0.5,0.4
			c-0.3-0.1-0.5-0.2-0.7-0.3c-0.3-0.1-0.6,0-0.8,0C43,67.2,42.6,67,42.7,66.7z"/>
		<path class="st0" d="M15,32.1c0.4-0.2,0.8,0.2,1,0.6c0.1,0.4,0.2,0.8,0.2,1.2s0,0.7,0.1,1.1c0,0.3,0,0.6-0.1,0.9
			c-0.1,0.3-0.4,0.5-0.7,0.5S15,36.1,15,35.8s0-0.6,0-0.8c0-0.4,0-0.8-0.1-1.2c-0.1-0.3-0.2-0.6-0.2-0.8
			C14.6,32.6,14.7,32.3,15,32.1z"/>
		<path class="st0" d="M12.4,35.6c-0.1-0.5-0.5-0.9-0.9-1.3c-0.2-0.2-0.4-0.4-0.5-0.6c-0.1-0.2-0.1-0.5,0.1-0.7
			c0.3-0.3,0.8,0,1.1,0.3c0.6,0.6,1,1.4,1.3,2.3c0.1,0.3,0.2,0.5,0.2,0.8s-0.2,0.5-0.5,0.6c-0.3,0-0.5-0.2-0.6-0.5
			C12.4,36.1,12.4,35.9,12.4,35.6z"/>
		<path class="st0" d="M11.7,37.1c0.2,0.2,0.5,0.3,0.6,0.6c0.2,0.2,0.2,0.6,0,0.8s-0.5,0.2-0.7,0.2s-0.5-0.2-0.7-0.3
			c-0.3-0.2-0.6-0.4-0.9-0.6c-0.2-0.2-0.5-0.3-0.7-0.6s-0.2-0.6,0-0.8c0.3-0.3,0.9-0.1,1.3,0.2C11.1,36.7,11.4,36.9,11.7,37.1z"/>
		<path class="st0" d="M40.4,33.5c0-0.3-0.1-0.6,0.2-0.8s0.7,0,0.8,0.3s0.1,0.7,0,1c0,0.5,0,0.9,0.1,1.4c0.1,0.3,0.2,0.5,0.1,0.8
			c0,0.3-0.3,0.5-0.6,0.5c-0.3-0.1-0.3-0.4-0.4-0.7C40.6,35.2,40.5,34.4,40.4,33.5z"/>
		<path class="st0" d="M39.4,37.1c-0.4-0.1-0.6-0.5-0.7-0.9c-0.2-0.6-0.5-1.2-0.7-1.9c-0.1-0.3-0.2-0.8,0.1-1c0.2-0.1,0.5,0,0.7,0.2
			S39,34,39,34.3c0.1,0.5,0.3,1,0.5,1.5c0.1,0.2,0.3,0.5,0.3,0.8C39.9,36.8,39.7,37.1,39.4,37.1z"/>
		<path class="st0" d="M43.9,33.9c0.2,0,0.4,0.3,0.4,0.5s-0.1,0.5-0.2,0.7c-0.3,0.6-0.5,1.1-0.8,1.7c-0.1,0.2-0.1,0.3-0.3,0.4
			c-0.1,0.1-0.3,0.2-0.5,0.1c-0.2-0.1-0.2-0.5-0.1-0.7c0.2-0.7,0.5-1.3,0.7-2C43.4,34.3,43.6,33.9,43.9,33.9z"/>
		<path class="st0" d="M15.6,56.8c-0.1,0.1-0.4,0-0.5-0.1C15,56.5,15,56.3,15,56.1c-0.1-0.7-0.4-1.5-0.7-2.1
			c-0.1-0.1-0.2-0.3-0.2-0.5s0.1-0.4,0.2-0.4c0.2-0.1,0.4,0.2,0.5,0.5c0.1,0.2,0.2,0.5,0.5,0.5c0.1,0,0.1,0,0.2-0.1
			c0.3-0.1,0.5,0.2,0.6,0.4c0.1,0.3,0,0.5-0.1,0.8C15.9,55.8,15.8,56.3,15.6,56.8z"/>
		<path class="st0" d="M15.6,73.3c0.9,0.1,2,0.1,2.7-0.6c0.6-0.6,0.6-1.5,0.6-2.3c0-1.6,0-3.3-0.1-4.9c-0.1,1.3-0.3,2.6-0.5,3.9
			c-1.2-2.9-1.8-6-1.8-9.1c-1.3-0.5-2.7-1.1-3.4-2.3c-0.6-0.9-0.7-2-0.8-3.1c-0.1-1.4-0.2-2.7-0.4-4.1c0-0.5-0.1-1.1,0.3-1.4
			c0.9-0.7,0.4-2.1-0.2-3c-0.6-0.9-1.3-2.1-0.8-3c0.7,1.1,1.5,2.2,2.2,3.2c-0.3-1.2-0.9-2.2-1.8-3.1c-0.2-0.4,0.6-0.3,0.9,0
			c0.9,1.4,1.9,2.7,2.8,4.1c0.3-0.2,0.6-0.5,0.8-0.7c0.2,0.9,0,1.8-0.5,2.5c1.2,0,1.5-1.8,0.9-2.9c-0.6-1-1.7-1.7-2.3-2.8
			c-1.1-2.1,0.4-4.9,2.6-5.6s4.8,0.7,6,2.8c0.7,1.3,1,2.9,0.4,4.2s-2.4,2.1-3.7,1.5c1.7,1.3,2.7,3.6,2.4,5.7c0.7-0.4,0-1.5,0.2-2.2
			c0.2-0.6,0.9-0.8,1.5-0.7s1.1,0.6,1.5,1c0.8,0.2,1.5,0.4,2.3,0.6c0.3,0.9,0.6,1.7,0.9,2.6c-0.2-1-0.2-2,0.1-3
			c0.4,0.9,0.8,1.8,1.2,2.7c1.5-0.9,2.3-2.5,2.6-4.2c0.3-1.7,0.1-3.4-0.2-5c-0.3-2.3-0.6-4.8-2-6.7c1.7,0.8,3.4,1.5,5.1,2.3
			c0.2,0.1,0.4,0.2,0.6,0.4c0.3,0.5-0.1,1.1-0.5,1.4c-0.8,0.7-1.7,1.2-2.6,1.6c0.2,1.8,0.5,3.7,0.7,5.5c2.2-1.4,5.4-0.8,6.9,1.3
			c1.4,2.1,0.5,5.6-1.9,6.4c0.1,0.8,0.3,1.7,0.7,2.4c1-0.2,1.7-1.1,2-2c0.3-1,0.3-2,0.2-3c0.5,1.1,1,2.2,1.4,3.2
			c0.3-2.9-0.1-5.9-1.1-8.7c-0.5-0.1-1,0.2-1.1,0.7c-1.7-1.6-3.3-3.6-3.1-5.9c0.2-2,2.1-3.6,4.2-3.7c2,0,3.9,1.5,4.4,3.5
			s-0.4,4.2-2.1,5.3c0.4,0.8,0.9,1.6,1.3,2.5c1.3-1.6,3.9-1.8,5.4-0.6c0,0.5-0.7,0.9-1.2,0.7s-0.9-0.6-1.2-1.1
			c-0.6,1-1.6,1.7-2.7,1.9c0.1,1,0.1,2,0.2,3c0.2,0.5,1,0.3,1.3-0.1c0.3-0.4,0.4-1,0.8-1.4c0.5-0.5,1.2-0.5,1.9-0.6
			c0.6-0.2,1.3-0.7,1.1-1.4c-0.2-0.6,0.2-1.3,0.7-1.7c0.6-0.3,1.2-0.4,1.9-0.5c0.3,0.2,0.6,0.3,0.9,0.5c1.6,0.5,2.5,2.3,2.1,3.9
			c2.4-1.8,4.8-3.6,7.2-5.4c1.9-1.4,0.4-4.7,1.5-6.8c0.7,0.6,1,1.6,0.9,2.5c0.4-10.9,0.8-21.8,1.2-32.6c0-0.3,0.1-0.7,0.4-0.7
			s0.4,0.4,0.4,0.7c-0.4,11.1-0.7,22.2-1.1,33.3c-0.1,1.9-0.1,3.7-0.2,5.6c-0.2,7.3,1.1,11.4-0.7,22c0,0.6-0.5,1.3-0.9,0.9
			c0,0,0-0.2,0-0.3c-2.3,0.6-1.7-7.2,0.8-18.7c-2.8-0.1-5.6,0.5-8.1,1.8c-0.8,0.4-1.9,0.9-2.6,0.4c0.5,1.8,0.1,3.8-1,5.3
			c-0.5-0.4-0.8-0.9-0.8-1.6c-1.1,1.2-0.3,3-0.4,4.6c-0.1,2.3-2.1,4.1-4,5.5c0.5-0.2,0.9,0.5,0.6,1c-0.3,0.4-0.8,0.5-1.3,0.6
			c-1.8,0.2-4,0.3-4.8-1.3c-0.1-0.2-0.1-0.4-0.1-0.6c0-0.8,1-1.1,1.7-1.4s1.3-1.4,0.6-1.8c1.1,0.2,1.7-1.4,1.3-2.4s-1.3-1.9-1.7-2.9
			c-0.2,0.9-0.3,1.8-0.5,2.6c-0.7,0.4-1.6,0.1-2.1-0.5c0.5-0.2,0.9-0.4,1.4-0.7c-0.6,0.3-1.4-0.2-1.3-0.9c0.1-0.7,0.9-1.1,1.5-0.7
			c-0.2-0.4-0.4-0.8-0.7-1.1c-1.1,0-2.3,0-3.4,0c-0.4,0-0.9,0.2-0.7,0.5c0.5,1.5,0.5,3.3-0.2,4.8c1.3,1.2,2.4,2.7,3.3,4.2
			c0.5,0.9,1,2.1,0.6,3.1s-2.1,1.4-2.5,0.4c-0.4-0.3-1,0.2-1.4,0.5S38,73.5,37.9,73c0-0.3,0.2-0.5,0.4-0.7c0.6-0.4,1.3-0.6,2-0.6
			c-0.1-2.1-0.3-4.6-2.1-5.8c-0.9-0.6-2.3-0.8-2.7-1.8c0.5,1.6,1.1,3.3,1,5s-0.8,3.5-2.3,4.3c-1.1,0.6-2.4,0.5-3.7,0.5
			c-0.7,0-0.9-1.1-0.5-1.6c0.5-0.5,1.2-0.6,1.9-0.5s1.4,0.2,2,0c1.3-0.4,1.9-2,1.7-3.4s-0.9-2.6-1.1-4c-0.4-2.2,0.3-4.5,1-6.6
			c0.1-0.3,0.3-0.7,0.6-0.7c0.8-0.1,0.4,1.7,1.2,2c0.3-0.9-0.4-1.9-1.2-2.4c-0.8-0.6-1.8-0.9-2.5-1.5c-1.4-1.2-1.8-3.4-0.8-5
			c-0.4,1.8-1.4,3.4-2.8,4.6c0.3,1.8,0.7,3.6,0.1,5.3c-0.9,2.9,3.3,5.7,2.1,8.5c-0.4,1,0.2,2.2,1.2,2.4c-0.6,0.5-1.6,0.7-2.3,0.4
			c-0.3-0.5-0.7-1.1-0.7-1.7c-0.1-0.6,0.3-1.3,0.9-1.4c-0.7-1.2-1.4-2.3-2.1-3.5c0.2-0.4,0.4-0.7,0.6-1.1c-0.4-0.3-1,0-1.1,0.5
			c-0.2,0.5,0,1,0.1,1.4c0.4,1.7,0.5,3.6,0.1,5.3c-0.2,1.1-0.7,2.3-1.6,2.9s-2.5,0.4-2.9-0.6c-0.1,0.7-0.7,1.4-1.5,1.5
			c-0.7,0.1-1.5-0.5-1.7-1.2c-0.8,0.3-1.7-0.8-1.1-1.3c0.7-0.1,1.4-0.3,2.1-0.4c-0.4-0.5-0.9-1.1-0.8-1.8s1.1-1.2,1.5-0.6
			c-0.3-1-0.6-2.1-0.9-3.1c-0.3-1.2-1.5-2-2.7-1.9c0.4,2.4,0.5,4.8,0.3,7.2c-0.1,1.1-0.4,2.4-1.3,3.1C17.2,75,15.5,74.4,15.6,73.3
			 M23.4,67.4c-0.2,0.3,0.1,0.7,0.4,1c0.6,0.7,1.1,1.4,1.5,2.2c0.4,0.7,0.6,1.5,0.1,2.1c0.7,0.1,1.4-0.3,1.8-0.8s0.7-1.2,0.9-1.8
			c0.2-0.6,0.4-1.3,0.2-1.9c-0.7-1.5-1.2-3.2-1.5-4.9c-0.1,0.3-0.3,0.8-0.6,0.6c-0.2-0.1-0.2-0.3-0.1-0.5c0.1-1.1,0.1-2.2-0.1-3.2
			c-0.4-2.7-0.6-5.5-0.5-8.2c-0.4,0.1-0.6,0.5-0.9,0.8s-0.8,0.5-1,0.1c-0.1-0.2-0.4-0.2-0.6-0.1c-0.2,0.1-0.3,0.4-0.4,0.6
			c-0.6,2.1,0.9,4.5,0.2,6.5c-0.3,0.7-0.3,1.5-0.3,2.3c-0.1,1.2-0.1,2.4,0.5,3.4C23.2,66.2,23.7,66.8,23.4,67.4 M51.9,65.5
			c-1.2-1-1.4-2.8-1.4-4.3c0-0.4-0.1-0.9,0.1-1.3c0.2-0.4,0.6-0.8,1-0.7c0.4,0,0.8,0.6,0.5,1c0.4-0.1,0.7-0.7,0.5-1.1
			c-0.2-0.4-0.8-0.5-1.2-0.2c-0.2,0.2-0.4-0.2-0.5-0.5c-0.1-1.2-0.2-2.4-0.4-3.6c-0.3,0-0.5,0.4-0.5,0.7s0.2,0.6,0.2,0.9
			c0,0.3-0.3,0.7-0.6,0.6c-0.4-0.1-0.3-0.6-0.3-1s-0.4-0.9-0.6-0.6c-0.4,0.4-0.9,0.5-1.3,0.7s-0.9,0.7-0.7,1.2
			c0.3,0.8,0.3,1.8-0.2,2.6c-0.4,0.7-0.2,1.5,0.2,2.2s0.9,1.3,1.1,2.1c0.2,0.8-0.1,1.7-0.8,1.9c-0.8,0.3-0.1,1.9-0.8,2.3
			c-0.2,0.1-0.5,0.1-0.7,0.1c-0.2,0.1-0.5,0.3-0.4,0.5C47.7,68.6,50.1,67.4,51.9,65.5 M14.7,50.5C14.3,50,13.6,50,13,50
			c-0.1,0-0.2,0-0.2,0.1c-0.1,0.1-0.1,0.1-0.1,0.2c-0.1,0.5-0.1,1,0,1.5c0.1-0.3,0.3-0.6,0.6-0.6c0.2,0.1,0.3,0.3,0.3,0.6
			c0.2,1.7,0.4,3.5,0.1,5.2c-0.1,0.7,0.2,1.4,0.9,1.8C15,59,15.5,59,15.9,59c0.3,0,0.7-0.1,0.7-0.4c-0.1-0.6,0-1.3,0.3-1.8
			c0.1-0.2,0.1-0.5,0.1-0.7c-0.1-1-0.3-2-0.4-3c0-0.2-0.1-0.4-0.1-0.6c-0.3-0.6-0.5-1.2-0.5-1.8c0-0.2-0.3-0.2-0.5-0.1
			C15.1,50.5,14.8,50.6,14.7,50.5 M64.5,49.6c0-0.3,0-0.5,0.2-0.8c0.3-0.4,0.9-0.3,1.1,0.1c0-0.4-0.3-0.8-0.7-0.8
			c-0.2,0-0.3,0.1-0.5,0.2c-2.7,1.9-5.3,3.8-7.9,5.9c0.1,0.2,0.4,0.2,0.7,0.1c2.3-0.6,4.6-1.2,6.9-1.8c0.1,0,0.2-0.1,0.2-0.2
			C64.5,51.5,64.5,50.6,64.5,49.6 M43,43.5c0.3-0.2,0.7-0.1,0.8,0.3c0,0.2,0,0.5,0.2,0.6c0.1-0.5,0.8-0.7,1-1.1
			c0.2-0.4,0-0.8-0.2-1.1c-0.8-1.1-2.2-1.5-3.6-1.5c-0.5,0-0.9,0.1-1.4,0.2c-0.8,0.4-1.4,1.2-1.5,2.1s0.1,1.8,0.6,2.5
			c0.1,0.2,0.4,0.3,0.5,0.2c-0.5-0.8-0.7-1.7-0.7-2.5c0-0.1,0-0.2,0.1-0.3s0.3-0.1,0.5,0s0.2,0.3,0.3,0.5c0.1-0.2,0.3-0.5,0.5-0.7
			s0.5-0.3,0.8-0.1c0.2,0.1,0.4,0.5,0.2,0.7s0,0.5,0.2,0.7s0.5,0.2,0.7,0.4c0.2,0.3,0.2,0.7,0.2,1.1c0,0.4,0.3,0.8,0.7,0.8
			s0.5-0.5,0.4-0.9s-0.3-0.7-0.4-1.1C42.8,43.9,42.8,43.7,43,43.5 M36.1,53.2c0.5,0.1,0.7-0.9,1.3-0.9c0.3,0,0.5,0.3,0.5,0.5
			s-0.1,0.5-0.3,0.7c-0.1,0.1,0.1,0.3,0.3,0.3c0.7,0,1.2-0.8,1.2-1.5c0-0.9-0.5-1.7-1.2-2.1c-0.7-0.4-1.7-0.4-2.5,0
			c-0.1,0.1-0.2,0.1-0.2,0.3c0,0.1,0.1,0.3,0.2,0.2c0.5-0.2,1.1-0.2,1.6,0c0.2,0.1,0.4,0.1,0.5,0.3s0.1,0.5-0.1,0.5
			c-0.1,0-0.3,0-0.4-0.1c-0.3-0.1-0.6-0.2-0.9-0.2c-0.3,0-0.7,0.2-0.8,0.5c0,0.2,0.1,0.3,0.2,0.5c0.1,0.2,0.2,0.4,0.4,0.6
			C35.7,53,35.9,53.2,36.1,53.2 M17.8,58.3c0.1,0.3,0.1,0.6,0.4,0.7c0.2,0.1,0.1,0.3,0,0.5S18.1,60,18.3,60c0.4-0.4,0.7-0.9,0.9-1.4
			c0.1-0.3,0.2-0.5,0.4-0.7c0.2-0.2,0.5-0.3,0.7-0.1c0.1,0.1,0.2,0.3,0.3,0.4c0.1,0.1,0.4,0,0.3-0.2c-0.8-1.1-1.3-2.4-1.2-3.8
			c-0.1-0.1-0.2-0.1-0.3,0c0,0.3,0,0.5,0,0.8c-0.1,0.3-0.2,0.5-0.5,0.6s-0.4,0.5-0.4,0.8s-0.1,0.7-0.4,0.8
			C17.7,57.2,17.7,57.8,17.8,58.3 M26.8,57.9c0.3-0.1,0.6-0.4,0.6-0.7c0-1.6-0.1-3.3-0.1-4.9c0-0.3-0.3-0.5-0.6-0.4
			c-0.3,0.1-0.5,0.3-0.5,0.6c-0.1,0.3-0.1,0.5,0,0.8c0.1,1.6,0.2,3.2,0.3,4.8C26.5,58.1,26.6,58,26.8,57.9 M39,55.1
			c0.6-0.5,1-1.2,1.2-1.9c0.1-0.2,0.1-0.4-0.1-0.5c-0.3,0.6-0.6,1.3-1.2,1.6c-0.7,0.4-1.6,0.3-2.5,0.1c-0.7-0.1-1.3-0.3-1.9-0.7
			c-0.6-0.3-1.1-0.9-1.2-1.5c0-0.1-0.2-0.1-0.3,0s0,0.2,0,0.4c0.5,1.5,2,2.7,3.6,3c0.1,0,0.2,0,0.3,0c0.2-0.1,0.3-0.2,0.4-0.3
			c0.1-0.1,0.3-0.2,0.4,0c0.1,0.2,0.4,0.2,0.6,0.2S38.8,55.3,39,55.1 M20.6,44.5c0.2-0.4,0.3-0.8,0.3-1.3s-0.4-1-0.9-1.3
			s-1-0.4-1.5-0.5c-0.1,0.2,0.1,0.4,0.3,0.5c0.2,0.1,0.4,0.3,0.5,0.5c0.1,0.1,0.1,0.2,0.1,0.3c0,0.3-0.3,0.4-0.6,0.3
			c-0.2-0.1-0.4-0.3-0.6-0.5s-0.4-0.4-0.7-0.3c-0.4,0.1-0.5,0.6-0.5,1c0,0.2,0,0.3,0.1,0.5c0.1,0.1,0.3,0.2,0.4,0.2
			c0.4-0.3,0.9-0.4,1.4-0.3c0.3,0,0.7,0.2,0.8,0.4c0.3,0.4,0,1-0.2,1.4c0.2,0.1,0.5,0,0.7-0.1S20.5,44.7,20.6,44.5 M15.2,41.3
			c0.4-0.5,0.9-0.8,1.5-1s1.2-0.2,1.8-0.2c0.5,0,1,0,1.4,0c0.5,0.1,1,0.2,1.5,0.4c0.1-0.2-0.1-0.4-0.3-0.5c-1.1-0.8-2.6-1.2-3.9-1
			s-2.6,1.4-2.6,2.8C14.9,41.7,15,41.5,15.2,41.3 M32.6,39.4c-0.3,0.2-0.3,0.6-0.3,0.9c0,0.3,0.1,0.7,0.1,1s0.1,0.7,0.4,0.8
			c0.2,0.1,0.4,0,0.6-0.1c0.6-0.3,1.1-0.6,1.6-1.1c0.1-0.1,0.3-0.2,0.3-0.4s-0.1-0.4-0.2-0.4C34.2,40.1,33.3,39.8,32.6,39.4
			 M43.1,49.8c0.2-0.1,0.2-0.4,0.1-0.6c0-0.2-0.1-0.4-0.1-0.6c0-0.2,0.2-0.4,0.4-0.4c0.1,0,0.1-0.1,0-0.1c0,0-0.1,0-0.2,0
			c-0.4,0.1-0.8,0.2-1.2,0.3c0.4,0.9,0.6,1.9,0.8,2.9c0,0.4,0.1,0.8,0.3,1.1c0.5,0.7,0.8,1.5,0.8,2.4c0,0.2,0.1,0.5,0.3,0.5
			c0.3-0.1,0.4-0.5,0.4-0.8s-0.2-0.6-0.4-0.8c-0.5-0.9-0.4-2-1-2.8c-0.1-0.2-0.2-0.3-0.3-0.5C43,50.2,43,50,43.1,49.8 M29.3,59.2
			c0.1,0,0.2,0,0.3-0.1c0.2-0.1,0.2-0.3,0.2-0.5c0.1-0.6,0-1.2-0.3-1.8c-0.1-0.2-0.2-0.3-0.4-0.2C29,56.7,29,56.8,29,56.9
			c0,0.2,0.1,0.4,0.1,0.6c0,0.2,0,0.5-0.1,0.6s-0.3,0-0.4-0.1s-0.1-0.3-0.2-0.4c-0.2-0.7-0.3-1.4-0.4-2.1c0-0.2-0.1-0.5-0.3-0.5
			c-0.2,0.3-0.1,0.8-0.1,1.1c0.1,0.8,0.3,1.5,0.4,2.3c0,0.2,0.1,0.3,0.2,0.5C28.6,59.2,29,59.2,29.3,59.2 M52.6,57.8
			c0.2-0.9,0.3-1.8,0.4-2.7c0-0.3,0.1-0.6,0-0.9c-0.1-0.2-0.2-0.4-0.3-0.5c-0.2-0.3-0.3-0.5-0.5-0.8C52.1,54,52,55.1,52,56.2
			c0,0.3,0,0.6,0.1,0.9C52.1,57.4,52.4,57.7,52.6,57.8 M37.4,64.8c0.1,0,0.2,0,0.2-0.1c0.3-0.2,0.6-0.3,0.9-0.5
			c-0.8-0.2-1.2-1.2-0.8-1.9c0.1-0.2-0.1-0.5-0.3-0.6c-0.1-0.1-0.4-0.2-0.4,0c0,0.5,0,1,0,1.5c0,0.1,0,0.2-0.1,0.3
			c-0.1,0.2-0.4,0.1-0.5,0c-0.1-0.2-0.1-0.4-0.1-0.6c0-0.1,0-0.3,0-0.4c0-0.1-0.2-0.2-0.3-0.2c-0.1,0.9,0.3,1.9,1.1,2.4
			C37.2,64.7,37.3,64.8,37.4,64.8 M18.7,52.5c0.1,0,0.2,0,0.3,0c0.3-1.8,0.2-3.7-0.2-5.4c-0.1-0.3-0.6-0.2-0.7,0.1s0,0.6,0.1,0.9
			C18.7,49.5,18.9,51,18.7,52.5 M42.2,72.1c0.4-0.2,0.2-0.8,0-1.2c-0.4-0.8-0.8-1.7-1.2-2.5c-0.1-0.2-0.2-0.4-0.4-0.3
			c0.2,0.7,0.4,1.3,0.5,2c0.1,0.3,0,0.6,0,1c0,0.3,0,0.7,0.2,0.9C41.6,72.1,42,72.2,42.2,72.1 M17.6,49.8c0-0.4,0-0.7-0.1-1.1
			c-0.4,0.9-0.4,1.8-0.4,2.8c0,1.4,0.1,2.9,0.3,4.3v0.1c0.1,0.1,0.3,0,0.3-0.1c0.1-0.1,0-0.2,0-0.4c-0.3-1.3-0.3-2.7-0.3-4.1
			C17.6,50.8,17.6,50.3,17.6,49.8 M24,52.1c0.4,0.1,0.7-0.2,0.8-0.6c0-0.4-0.2-0.7-0.4-0.9c-0.3-0.2-0.6-0.3-1-0.4
			c-0.1,0-0.2-0.1-0.3,0c-0.2,0.1-0.2,0.4-0.1,0.7c0.2,0.3,0.3,0.6,0.6,0.9C23.6,51.9,23.8,52.1,24,52.1 M41.7,47.4
			c-0.3,0-0.7-0.1-0.9,0.2c0.8,0.4,1.8,0.3,2.6-0.1s1.4-1.1,1.8-1.9c0.1-0.1,0-0.3-0.1-0.2c-0.5,0.3-0.9,0.7-1.4,1
			C43.2,46.9,42.5,47.4,41.7,47.4 M18.8,60.4c-0.1,0.1-0.3,0.2-0.2,0.4c0,0.1,0.1,0.2,0.2,0.3c0.4,0.2,0.8,0.5,1.1,0.7c0-1,0-2,0-3
			c-0.1,0-0.1,0-0.2,0C19.6,59.5,19.3,60,18.8,60.4 M56.6,53.9c-0.1-0.1-0.3,0.1-0.5,0.1c-0.2,0.1-0.4-0.1-0.5-0.3s-0.1-0.4-0.1-0.6
			c-0.2-0.5-0.7-0.8-0.7-1.3c-0.1,0.1-0.1,0.2-0.1,0.3c-0.1,0.4-0.1,0.9,0,1.3c0.1,0.4,0.4,0.8,0.9,0.9
			C55.9,54.5,56.4,54.3,56.6,53.9 M24.7,71.3c-0.2-0.5-0.5-1-0.8-1.5c-0.2,0.1-0.2,0.4-0.1,0.6s0.2,0.5,0.3,0.7
			c0.1,0.2,0.2,0.5,0.2,0.8c-0.1,0.3-0.4,0.5-0.6,0.4s-0.2-0.3-0.3-0.4c-0.1-0.2-0.3-0.3-0.4-0.2c-0.1,0.2-0.2,0.3-0.3,0.5
			s0,0.4,0.2,0.5s0.5,0,0.7-0.1c0.3-0.1,0.5-0.2,0.8-0.4c0.1,0,0.2-0.1,0.3-0.2C24.9,71.9,24.8,71.6,24.7,71.3 M54,59.6
			c0,0.1,0.1,0.3,0.2,0.3c0.2-1.3,0.3-2.7,0.4-4c0-0.1,0-0.3-0.1-0.4C54.1,56,54,56.6,54,57.2C53.9,58,54,58.8,54,59.6 M28.5,60.4
			c-0.1,0.3-0.1,0.6-0.2,0.9c-0.1,0.5-0.2,1,0.1,1.5c0.1,0.1,0.2,0.2,0.3,0.2l0.1-0.1c0.3-1,0.3-2.1,0-3.1
			C28.6,59.9,28.6,60.2,28.5,60.4 M51.9,64.4c0.1,0,0.2,0,0.3,0c-0.1-1.1-0.3-2.2-0.6-3.2c0-0.1,0-0.1-0.1-0.2
			c-0.1-0.1-0.3,0-0.3,0.1s0,0.3,0,0.4C51.4,62.6,51.7,63.5,51.9,64.4 M21.3,42l-0.1,0.1c0.4,0.3,0.5,0.8,0.5,1.3s-0.1,1-0.3,1.4
			c0.4-0.2,0.6-0.5,0.8-0.8c0.2-0.4,0.3-0.8,0.1-1.2C22.1,42.3,21.8,42,21.3,42 M45.3,57.3c-0.1,0.3,0.2,0.6,0.3,0.8s0,0.5,0,0.8
			s0.1,0.6,0.2,0.8c0.4-0.5,0.4-1.1,0.3-1.7c0-0.3,0-0.6-0.2-0.8C45.9,57.1,45.5,57,45.3,57.3 M16.7,45.2c0-0.1,0.1-0.2,0.1-0.2
			c-1.1-0.7-1.5-2.3-0.8-3.4c-0.1-0.1-0.2,0-0.3,0.1c-0.4,0.5-0.5,1.3-0.3,2C15.6,44.3,16.1,44.8,16.7,45.2 M20.9,59.3
			c-0.2,0.2-0.2,0.5-0.2,0.7c0,0.6,0,1.3,0,1.9V62c0.1,0.1,0.2,0,0.3-0.1c0.2-0.7,0.3-1.4,0.2-2.1C21.2,59.6,21.1,59.3,20.9,59.3
			 M20.8,56.5c0,0.1,0.1,0.2,0.1,0.2c0.1,0,0.1,0.1,0.2,0c-0.3-1.5-0.6-2.9-1-4.4C20,53.8,20.4,55.2,20.8,56.5 M40.9,44.4
			c-0.2,0.4-0.2,0.9,0.1,1.3c0.3,0.4,0.7,0.7,1.1,0.9h0.1c0.1,0,0.2-0.1,0.2-0.2c-0.3-0.3-0.6-0.5-0.9-0.8c-0.1-0.1-0.2-0.2-0.2-0.3
			c-0.1-0.2,0-0.4,0-0.7S41.1,44.3,40.9,44.4 M54,50.9c-0.2-0.2-0.4-0.4-0.7-0.6c0,0-0.1-0.1-0.2-0.1c-0.2,0-0.2,0.2-0.1,0.4
			c0.1,0.6,0.2,1.3,0.4,1.9C53.6,52,53.8,51.4,54,50.9 M43.8,45.4L43.8,45.4c0.1,0.1,0.1,0.1,0.2,0.1c0.7-0.3,1.3-1,1.4-1.7
			c-0.3,0.1-0.5,0.3-0.7,0.5s-0.5,0.4-0.7,0.3c-0.2,0-0.3,0.1-0.4,0.3C43.7,45.1,43.8,45.3,43.8,45.4 M43.1,58.3
			c-0.7,0.2-1.4,0.5-2,0.7c-0.1,0-0.2,0.1-0.1,0.2c1,0.1,2-0.3,2.7-1C43.5,58.2,43.3,58.2,43.1,58.3 M20.7,48.6
			c0-0.1-0.1-0.2-0.1-0.2c-0.1-0.1-0.2-0.1-0.2,0c0.2,1.2,0.6,2.3,1,3.4C21.4,50.7,21,49.6,20.7,48.6 M21.9,62c-0.1,0-0.2-0.1-0.2,0
			c-0.1,0.6-0.4,1.1-0.8,1.5c-0.1,0.2,0,0.4,0.2,0.4s0.4-0.1,0.5-0.3s0.1-0.4,0.2-0.6C21.8,62.8,21.9,62.4,21.9,62 M22.7,44.4
			c-0.3,0.8-1,1.4-1.8,1.6c0,0.1,0,0.1,0,0.2c1,0,1.9-0.8,2-1.8C22.9,44.4,22.8,44.4,22.7,44.4 M38.4,60.4c-0.2,0-0.4,0.3-0.4,0.5
			s0.1,0.4,0.1,0.6c0.2,0.4,0.4,0.9,0.5,1.3c0.2-0.1,0.2-0.3,0.1-0.5C38.7,61.6,38.5,61,38.4,60.4 M30.8,65.3
			c0.1,0.3,0.3,0.5,0.4,0.8c0.1,0.1,0.3,0.3,0.4,0.1c-0.2-0.8-0.5-1.5-1-2.2C30.4,64.5,30.6,65,30.8,65.3 M34.4,52.4
			c-0.2-0.7-0.3-1.4-0.1-2.1c0-0.1,0-0.4-0.2-0.3c-0.4,0.4-0.3,1.1-0.2,1.6C33.9,52,34,52.4,34.4,52.4 M18.5,61.7
			c-0.1,0-0.1-0.1-0.2-0.1s-0.2,0.1-0.1,0.2c0.4,0.5,1,0.9,1.6,1.1c0.1-0.1,0-0.3-0.1-0.4C19.2,62.2,18.9,61.9,18.5,61.7 M39.5,47
			c0.2,0.1,0.4,0.2,0.6,0.4c0.1,0.1,0.2,0.1,0.3,0.1c0.2,0,0.3-0.2,0.3-0.3c0.1-0.1,0.1-0.3,0.2-0.4c-0.2-0.2-0.4,0.1-0.7,0.1
			s-0.6-0.3-0.7-0.1C39.5,46.8,39.5,46.9,39.5,47 M36.6,59.7c-0.1-0.5-0.2-1-0.3-1.5c0-0.1-0.1-0.2-0.2-0.2C36,58.4,36,58.7,36,59
			S36.3,59.7,36.6,59.7 M43.5,54.7c-0.1,0.6,0,1.3,0.1,1.9C43.9,56,43.9,55.3,43.5,54.7 M27.4,59.3c0-0.1,0-0.1-0.1-0.2
			c0-0.1-0.1-0.1-0.2-0.1c-0.2,0.4-0.1,0.9,0.2,1.2C27.4,59.9,27.5,59.6,27.4,59.3 M29.2,55.8c0.2,0.2,0.4,0.3,0.7,0.3
			c-0.1-0.3-0.3-0.7-0.5-1C29.1,55.3,29,55.6,29.2,55.8 M49.9,53.7c0.4,0,0.8-0.4,0.8-0.9C50.3,53,50,53.3,49.9,53.7 M51.9,51.9
			c-0.1-0.2-0.1-0.4-0.2-0.5c-0.1,0-0.1,0-0.2,0c0.1,0.2,0,0.4,0,0.6c0,0.2,0.4,0.3,0.4,0.2C51.9,52,51.9,52,51.9,51.9 M56.3,54.9
			c-0.1-0.1-0.3,0-0.4,0.1c-0.1,0.2,0.1,0.5,0.3,0.4C56.5,55.4,56.5,55,56.3,54.9 M12.9,54.1c-0.1,0.3,0,0.7,0.2,1
			c0.1-0.4,0.1-0.8,0-1.1C13,53.9,12.9,54,12.9,54.1 M18.7,44.3c-0.2,0-0.4,0.1-0.3,0.3c0.1,0,0.3,0.1,0.4,0.1s0.3-0.1,0.3-0.3
			C19,44.3,18.8,44.2,18.7,44.3 M31.6,72.9c0.2,0,0.5,0,0.6-0.2c-0.3-0.1-0.7-0.1-1,0.1C31.3,72.9,31.5,72.9,31.6,72.9 M14.6,49
			c-0.2-0.1-0.4,0-0.4,0.2s0.3,0.3,0.4,0.2C14.6,49.2,14.6,49.1,14.6,49 M17.4,62.3c0-0.1,0-0.2,0-0.4c-0.3,0.1-0.3,0.5-0.1,0.6
			C17.4,62.5,17.4,62.4,17.4,62.3 M16.6,50.5c0-0.1-0.3-0.1-0.3,0s0.1,0.3,0.2,0.3C16.5,50.7,16.5,50.6,16.6,50.5 M52.5,50.9
			c0-0.1,0-0.2,0-0.2c-0.1,0-0.1,0-0.2,0c0,0.1-0.1,0.2,0,0.4C52.3,51,52.5,51,52.5,50.9 M39,63.8c0.1,0,0.2-0.1,0.1-0.2
			c-0.1-0.1-0.2-0.1-0.3-0.1S38.9,63.7,39,63.8 M38.2,59.2c0-0.1-0.2-0.2-0.3-0.2c0,0.1,0,0.2,0,0.2C38,59.4,38.2,59.3,38.2,59.2
			 M45.2,55.7c0-0.1,0-0.1,0-0.2c-0.1-0.1-0.3,0.1-0.2,0.2C45.1,55.7,45.2,55.7,45.2,55.7L45.2,55.7z"/>
	</g>
	<g id="Shape_18_3_">
		<path d="M162.9,57c0.3-4.6,0.5-9.3,0.6-13.9c0-0.3,0-0.6,0.2-0.8c0.1-0.2,0.5-0.4,0.7-0.2c0.2,0.1,0.2,0.4,0.2,0.7
			c-0.2,4.1-0.4,8.3-0.6,12.4c-0.2,3.7-0.4,7.5-2.6,10.5c-1.1,1.4-2.7,2.6-4.5,2.4c-1.7-0.2-2.9-1.7-3.8-3.1
			c-3.6-5.4-5.4-11.9-7.1-18.2c-1.9,6.9-3.2,14-3.9,21.1c0,0.3-0.1,0.6-0.3,0.8c-0.3,0.3-0.9,0-1-0.4c0-0.1,0-0.2,0-0.3
			c0.3-1.8,0.6-3.5,0.9-5.3c1-5.9,2-11.8,3.6-17.5c0-0.1,0.1-0.3,0.2-0.4c0.3-0.3,0.8-0.2,1,0.1c0.3,0.3,0.4,0.7,0.4,1.1
			c0.9,4,2,7.9,3.5,11.7c1,2.6,2.2,5.2,3.9,7.4c0.7,0.9,1.5,1.7,2.6,1.9c0.8,0.1,1.7-0.2,2.4-0.7s1.2-1.2,1.6-2
			c0.7-1.2,1.2-2.5,1.5-3.9C162.8,59.3,162.9,58.1,162.9,57z"/>
	</g>
	<g id="S_3_">
		<path d="M105.2,45L105.2,45C105.1,44.9,105.1,44.9,105.2,45C105.2,44.9,105.2,45,105.2,45L105.2,45z"/>
		<path d="M99.1,52.6c-0.5-1.7-0.9-3.5-0.2-5.1c0.2-0.5,0.6-1,0.9-1.5c1.2-1.4,2.8-2.5,4.7-2.6c0.4,0,0.9,0.1,1.2,0.4
			c0.3,0.3,0.1,1-0.3,1c-1.3,0.1-2.6,0.7-3.5,1.7s-1.3,2.4-1.2,3.7c0,0.4,0.1,0.8,0.2,1.3c0.9,3.2,2.7,6.1,4.4,9
			c0.7,1.2,1.4,2.5,1.3,3.8c-0.1,1.1-0.8,2.1-1.6,2.8c-2,2-4.8,3.2-7.5,2.6c-0.5-0.1-1-0.3-1.4-0.6s-0.7-0.8-0.7-1.4
			c0.2-0.3,0.5-0.6,0.8-0.7c0.8,0.8,2,1.1,3.2,1c1.1-0.1,2.2-0.6,3.1-1.3c1.1-0.8,2-2.1,1.8-3.4c-0.1-0.5-0.3-1-0.6-1.5
			c-0.7-1.4-1.6-2.7-2.3-4C100.4,56.1,99.7,54.4,99.1,52.6z"/>
	</g>
	<g id="G1_3_">
		<path d="M173.8,67.1c-2.4-1.2-4-3.7-4.8-6.2c-1.2-3.7-0.9-7.9,1.1-11.2c0.6-1,1.3-1.9,2.2-2.7c1.9-1.8,4.5-3,7.2-3
			c2.6,0,5.3,1.3,6.7,3.5c-0.2,0.4-0.8,0.1-1.1-0.2c-0.8-0.7-1.6-1.3-2.6-1.7c-3.3-1.4-7.5-0.2-9.9,2.4c-2.5,2.7-3.4,6.5-2.9,10.1
			c0.2,1.7,0.7,3.5,1.6,4.9s2.3,2.7,3.9,3.3c0.9,0.3,1.8,0.5,2.7,0.5c2.7,0.1,5.4-0.6,7.7-2.1s4-3.7,4.9-6.3c0.1-0.3,0.2-0.6,0-0.8
			c-0.1-0.1-0.3-0.2-0.5-0.2c-1.3-0.3-2.5-0.3-3.8-0.2c-1.9,0-3.9,0-5.8,0c-1.9,0-3.7,0-5.5,0.5c-0.4,0.1-0.7-0.5-0.4-0.9
			c0.3-0.3,0.7-0.4,1.2-0.4c4.5-0.3,9.1-0.3,13.6-0.1c0.9,0,1.9,0.2,2.2,0.9c0.3,0.6,0.1,1.3-0.1,1.9c-1,2.6-2.9,4.8-5.1,6.3
			c-2.3,1.5-5,2.4-7.8,2.4C176.8,68.1,175.2,67.8,173.8,67.1z"/>
	</g>
	<g id="I_3_">
		<path d="M135.9,69.8c0.1,0.2-0.3,0.5-0.5,0.3c-0.2-0.1-0.3-0.5-0.3-0.7c0-0.7,0-1.4,0.1-2c0.3-2.4,0.7-4.9,0.9-7.3
			c0.4-4.7,0.2-9.5,0.4-14.2c0-0.1,0-0.3,0.1-0.4c0.1-0.1,0.3-0.2,0.4-0.1c0.2,0.1,0.2,0.3,0.2,0.5c-0.1,3.3-0.1,6.6-0.2,10
			c0,0.7,0,1.4-0.1,2.2c-0.2,3.5-0.9,7-1.2,10.6C135.8,68.9,135.8,69.4,135.9,69.8z"/>
	</g>
	<g id="Shape_17_3_">
		<path d="M127,59.1c0-0.2-0.1-0.3-0.2-0.4c-0.1-0.1-0.2,0-0.3,0c-2.9,0.3-5.7,0.7-8.6,1c-0.2,0-0.3,0-0.4,0.2
			c-0.2,0.1-0.2,0.4-0.1,0.6c0.1,2.1,0.1,4.3,0.2,6.4c0,0.3,0,0.7-0.3,1s-0.8,0.1-1.1-0.3s-0.3-0.8-0.3-1.2
			c-0.1-2.1-0.1-4.2-0.1-6.3c-1.3,0.1-2.6,0.2-3.9,0.3c-0.5,0-1.1,0.1-1.5-0.3c-0.4-0.4-0.3-1.2,0.3-1.2c1.4,0,2.9,0,4.3-0.2
			c0.4,0,0.8-0.2,0.8-0.5c0-5.1,0.1-10.2,0.1-15.3c0-0.4,0-0.8,0.4-1s0.9,0,1.1,0.4s0.2,0.8,0.2,1.3c-0.2,4.8-0.3,9.6-0.1,14.4
			c0,0.1,0,0.2,0.1,0.3s0.2,0.1,0.3,0c2.9-0.2,5.9-0.4,8.8-0.6c0.1,0,0.3-0.1,0.2-0.2c-0.5-5.6-0.9-11.1-1.4-16.7c0-0.4,0-0.8,0.2-1
			c0.3-0.3,0.9-0.1,1.2,0.3c0.3,0.4,0.3,0.9,0.3,1.3c0.1,5.1,0.5,10.2,1.2,15.2c0.1,0.5,0.1,1.1,0.4,1.5c-0.2,0.4-0.1,0.9,0,1.4
			c0.6,3.9,1.2,7.7,1.5,11.6c0,0.5,0.1,0.9-0.1,1.4s-0.5,0.8-1,0.9c-0.5,0-0.9-0.4-0.8-0.8c0.3-1.1,0.2-2.2,0.1-3.3
			C128,65.8,127.6,62.5,127,59.1z"/>
	</g>
	<g id="U_3_">
		<path d="M75.6,49.8c0.3,0.3,0.3,0.8,0.2,1.2c-0.3,2.5-0.3,4.9-0.2,7.4c0,1.9,0.1,3.9,0.6,5.7c0.4,1.7,1.3,3.4,2.8,4.2
			c1.4,0.8,3.2,0.7,4.7,0.1c2.2-1,3.7-3,4.6-5.3c0.8-2.2,1.1-4.6,1.3-7c0.2-2.9,0.4-5.8,0.6-8.7c0-0.4,0.6-0.7,1-0.6s0.7,0.6,0.8,1
			c0.1,0.4,0,0.9-0.1,1.3c-0.4,2.4-0.4,4.9-0.6,7.3c-0.2,2.4-0.5,4.9-1.4,7.2s-2.4,4.4-4.5,5.7c-2.1,1.2-4.9,1.5-7,0.3
			c-1.7-1-2.9-2.7-3.4-4.6c-0.6-1.9-0.7-3.9-0.7-5.8c-0.1-2.6-0.1-5.3,0-7.9c0-0.5,0-1,0.3-1.4C74.6,49.7,75.2,49.5,75.6,49.8z"/>
	</g>
</g>
<g>
	<path d="M62.9,77.7l6.1-0.1c0.5,0,1,0.1,1.5,0.2s0.9,0.3,1.3,0.6c0.4,0.2,0.7,0.5,0.9,0.8c0.2,0.3,0.3,0.6,0.3,1
		c0,0.3,0,0.5-0.1,0.8c-0.1,0.3-0.2,0.5-0.4,0.7c-0.2,0.2-0.4,0.4-0.6,0.6c-0.2,0.2-0.5,0.3-0.9,0.4c0.5,0.1,0.9,0.2,1.2,0.4
		c0.3,0.2,0.6,0.4,0.8,0.6c0.2,0.2,0.4,0.5,0.5,0.8c0.1,0.3,0.2,0.6,0.2,0.9c0,0.4-0.1,0.7-0.3,1.1c-0.2,0.4-0.5,0.7-0.9,1
		c-0.4,0.3-0.8,0.6-1.3,0.7c-0.5,0.2-1,0.3-1.6,0.3L63,88.8L62.9,77.7z M65,82.4l3.7,0c0.3,0,0.6-0.1,0.9-0.2
		c0.3-0.1,0.6-0.3,0.8-0.4c0.2-0.2,0.4-0.4,0.5-0.6c0.1-0.2,0.2-0.4,0.2-0.6c0-0.2-0.1-0.3-0.2-0.5c-0.1-0.2-0.3-0.4-0.5-0.5
		c-0.2-0.2-0.5-0.3-0.8-0.4c-0.3-0.1-0.7-0.2-1.1-0.2l-3.7,0L65,82.4z M65,87.6l3.9,0c0.3,0,0.7-0.1,1-0.2c0.3-0.1,0.7-0.3,0.9-0.4
		c0.3-0.2,0.5-0.4,0.7-0.6c0.2-0.2,0.3-0.5,0.3-0.7c0-0.2-0.1-0.5-0.2-0.7c-0.1-0.2-0.3-0.5-0.6-0.7c-0.3-0.2-0.6-0.4-0.9-0.5
		c-0.4-0.1-0.8-0.2-1.2-0.2l-3.9,0L65,87.6z"/>
	<path d="M82.5,88.8c-1,0-2-0.1-2.8-0.5c-0.8-0.3-1.6-0.7-2.2-1.3c-0.6-0.5-1.1-1.2-1.4-1.9c-0.3-0.7-0.5-1.4-0.5-2.2
		c0-0.8,0.1-1.5,0.5-2.2c0.3-0.7,0.8-1.3,1.4-1.8s1.3-1,2.1-1.3c0.8-0.3,1.8-0.5,2.8-0.5c1,0,2,0.1,2.8,0.4c0.8,0.3,1.6,0.7,2.2,1.2
		s1.1,1.1,1.4,1.8c0.3,0.7,0.5,1.4,0.5,2.2c0,0.8-0.1,1.5-0.5,2.2c-0.3,0.7-0.8,1.3-1.4,1.9c-0.6,0.5-1.3,1-2.1,1.3
		C84.5,88.6,83.6,88.8,82.5,88.8z M82.5,87.6c0.7,0,1.4-0.1,2-0.4s1.1-0.6,1.5-1c0.4-0.4,0.7-0.9,0.9-1.5c0.2-0.6,0.3-1.2,0.3-1.9
		c0-0.7-0.1-1.3-0.3-1.8c-0.2-0.6-0.5-1-0.9-1.4c-0.4-0.4-0.9-0.7-1.5-0.9c-0.6-0.2-1.3-0.3-2-0.3c-0.7,0-1.4,0.1-2,0.3
		c-0.6,0.2-1.1,0.5-1.5,0.9c-0.4,0.4-0.7,0.9-0.9,1.4c-0.2,0.6-0.3,1.2-0.3,1.9c0,0.7,0.1,1.3,0.3,1.9c0.2,0.6,0.5,1,0.9,1.4
		c0.4,0.4,0.9,0.7,1.5,0.9C81.1,87.5,81.8,87.6,82.5,87.6z"/>
	<path d="M93.5,77.4l0.1,8c0,0.4,0.1,0.7,0.3,0.9c0.2,0.3,0.5,0.5,0.8,0.7c0.3,0.2,0.7,0.3,1.1,0.4c0.4,0.1,0.8,0.1,1.2,0.1
		c0.4,0,0.9-0.1,1.3-0.1c0.4-0.1,0.8-0.2,1.2-0.4c0.3-0.2,0.6-0.4,0.8-0.7s0.3-0.6,0.3-0.9l-0.1-8l2,0l0.1,7.8
		c0,0.6-0.2,1.1-0.5,1.5c-0.3,0.4-0.8,0.8-1.3,1.1c-0.5,0.3-1.1,0.5-1.8,0.7s-1.3,0.2-2,0.2c-0.6,0-1.3-0.1-1.9-0.2
		c-0.6-0.1-1.2-0.4-1.8-0.7c-0.5-0.3-0.9-0.7-1.3-1.1c-0.3-0.4-0.5-0.9-0.5-1.5l-0.1-7.8L93.5,77.4z"/>
	<path d="M107.9,77.3l6.9,8.8l0.1,0l-0.1-8.8l2,0l0.1,11l-2.4,0l-7-8.8l-0.1,0l0.1,8.9l-2,0l-0.1-11L107.9,77.3z"/>
	<path d="M119.8,77.2l6-0.1c1,0,1.9,0.1,2.6,0.5c0.8,0.3,1.4,0.7,1.9,1.2c0.5,0.5,0.9,1.1,1.2,1.7s0.4,1.3,0.4,2
		c0,0.7-0.1,1.4-0.4,2c-0.3,0.7-0.6,1.3-1.1,1.8c-0.5,0.5-1.1,0.9-1.8,1.3s-1.6,0.5-2.5,0.5l-6.1,0.1L119.8,77.2z M121.9,87l3.6,0
		c0.7,0,1.4-0.1,1.9-0.4c0.6-0.2,1-0.6,1.4-1c0.4-0.4,0.7-0.9,0.8-1.4s0.3-1.1,0.3-1.7c0-0.6-0.1-1.2-0.3-1.8
		c-0.2-0.5-0.5-1-0.9-1.4c-0.4-0.4-0.8-0.7-1.4-0.9c-0.6-0.2-1.2-0.3-1.9-0.3l-3.6,0L121.9,87z"/>
	<path d="M140,77l5.4,11l-2.2,0l-1.6-3.5l-5.6,0.1l-1.5,3.5l-2.2,0l5.2-11.1L140,77z M136.6,83.4l4.6,0l-2.3-5.2h0L136.6,83.4z"/>
	<path d="M147.1,76.9l7-0.1c0.6,0,1.1,0.1,1.5,0.3c0.5,0.2,0.9,0.4,1.2,0.7c0.3,0.3,0.6,0.6,0.8,0.9c0.2,0.3,0.3,0.7,0.3,1
		c0,0.3-0.1,0.6-0.2,0.9s-0.3,0.6-0.5,0.9c-0.2,0.3-0.4,0.5-0.7,0.7c-0.3,0.2-0.6,0.3-0.9,0.4c0.8,0.1,1.3,0.4,1.6,0.7
		s0.4,0.8,0.4,1.3l0,2.1c0,0.3,0.1,0.6,0.2,0.8c0.1,0.2,0.3,0.4,0.5,0.5l-2.2,0c-0.1-0.1-0.2-0.1-0.2-0.2c-0.1-0.1-0.1-0.2-0.1-0.3
		c0-0.1-0.1-0.2-0.1-0.3s0-0.2,0-0.3l0-2.1c0-0.2,0-0.3-0.1-0.5c-0.1-0.2-0.2-0.3-0.4-0.4c-0.2-0.1-0.4-0.2-0.7-0.3s-0.6-0.1-1-0.1
		l-4.3,0l0,4.7l-2,0L147.1,76.9z M149.2,82l4.3,0c0.3,0,0.6-0.1,0.9-0.2c0.3-0.1,0.5-0.3,0.7-0.5c0.2-0.2,0.4-0.4,0.5-0.7
		s0.2-0.5,0.2-0.7c0-0.2-0.1-0.4-0.2-0.7c-0.1-0.2-0.3-0.4-0.5-0.6c-0.2-0.2-0.5-0.3-0.8-0.4c-0.3-0.1-0.6-0.2-0.9-0.2l-4.3,0
		L149.2,82z"/>
	<path d="M162.9,76.8l0.1,11l-2,0l-0.1-11L162.9,76.8z"/>
	<path d="M176,76.6l0,1.2l-8,0.1l0,3.6l7.5-0.1l0,1.2l-7.5,0.1l0,3.9l8.4-0.1l0,1.2l-10.4,0.1l-0.1-11L176,76.6z"/>
	<path d="M180.4,84c0,0.3,0.1,0.7,0.3,1c0.2,0.3,0.4,0.6,0.7,0.8c0.3,0.2,0.7,0.4,1.1,0.6c0.4,0.1,0.9,0.2,1.5,0.2
		c0.4,0,0.9,0,1.3-0.1c0.4-0.1,0.8-0.2,1.1-0.4c0.3-0.2,0.5-0.4,0.7-0.6c0.2-0.2,0.3-0.5,0.3-0.8c0-0.4-0.1-0.7-0.4-0.9
		c-0.3-0.3-0.6-0.5-1-0.7c-0.4-0.2-0.8-0.3-1.3-0.4c-0.5-0.1-0.9-0.2-1.3-0.3c-0.6-0.1-1.2-0.2-1.7-0.4s-1-0.4-1.5-0.7s-0.8-0.6-1-1
		c-0.3-0.4-0.4-0.8-0.4-1.2c0-0.4,0.1-0.8,0.4-1.2c0.3-0.4,0.7-0.7,1.1-0.9c0.5-0.3,1-0.5,1.6-0.6c0.6-0.1,1.2-0.2,1.8-0.2
		c1,0,1.9,0.1,2.5,0.3c0.7,0.2,1.2,0.5,1.6,0.9c0.4,0.3,0.7,0.7,0.8,1.1c0.2,0.4,0.2,0.8,0.2,1.1l-2,0c0-0.3-0.1-0.6-0.3-0.9
		c-0.2-0.3-0.4-0.5-0.7-0.7c-0.3-0.2-0.6-0.4-1-0.5c-0.4-0.1-0.8-0.2-1.2-0.2c-0.4,0-0.8,0-1.1,0.1c-0.4,0.1-0.7,0.2-1,0.4
		c-0.3,0.2-0.5,0.3-0.7,0.5c-0.2,0.2-0.3,0.4-0.3,0.7c0,0.3,0.1,0.6,0.3,0.9c0.2,0.2,0.5,0.5,0.9,0.6c0.4,0.2,0.7,0.3,1.2,0.4
		c0.4,0.1,0.8,0.2,1.2,0.2c0.6,0.1,1.3,0.2,1.9,0.4c0.6,0.2,1.1,0.4,1.6,0.7c0.5,0.3,0.8,0.6,1.1,1c0.3,0.4,0.4,0.8,0.4,1.3
		c0,0.5-0.1,0.9-0.4,1.3c-0.3,0.4-0.6,0.7-1.1,1c-0.5,0.3-1,0.5-1.7,0.6c-0.7,0.1-1.4,0.2-2.1,0.2c-0.7,0-1.4-0.1-2.1-0.3
		s-1.3-0.5-1.8-0.8c-0.5-0.3-0.9-0.7-1.2-1.2c-0.3-0.5-0.5-1-0.5-1.5L180.4,84z"/>
</g>
</svg>
